# Blender 3.3.1
# www.blender.org
mtllib kukankeskus.mtl
o kukkalp
v -0.071734 2.319430 0.092089
v -0.071734 2.230084 0.092089
v -0.071734 2.319430 -0.103664
v -0.071734 2.230084 -0.103664
v 0.124019 2.319430 0.092089
v 0.124019 2.230084 0.092089
v 0.124019 2.319430 -0.103664
v 0.124019 2.230084 -0.103664
v -0.093183 2.329219 -0.005787
v -0.093183 2.274757 0.113538
v -0.093183 2.220294 -0.005787
v -0.093183 2.274757 -0.125112
v 0.026142 2.329219 -0.125112
v 0.026142 2.220294 -0.125112
v 0.145467 2.274757 -0.125112
v 0.145467 2.329219 -0.005787
v 0.145467 2.220294 -0.005787
v 0.145467 2.274757 0.113538
v 0.026142 2.329219 0.113538
v 0.026142 2.220294 0.113538
v -0.138194 2.274757 -0.005787
v 0.026142 2.274757 -0.170123
v 0.190478 2.274757 -0.005787
v 0.026142 2.274757 0.158549
v 0.026142 2.333341 -0.005787
v 0.026142 2.199750 -0.005787
vn -0.4155 0.8092 0.4155
vn -0.5100 0.8602 -0.0000
vn -1.0000 -0.0000 -0.0000
vn -0.7071 -0.0000 0.7071
vn -0.5416 -0.8406 -0.0000
vn -0.4371 -0.7861 0.4371
vn -0.7071 -0.0000 -0.7071
vn -0.4371 -0.7861 -0.4371
vn -0.4155 0.8092 -0.4155
vn -0.0000 0.8602 -0.5100
vn -0.0000 -0.0000 -1.0000
vn -0.0000 -0.8406 -0.5416
vn 0.7071 -0.0000 -0.7071
vn 0.4371 -0.7861 -0.4371
vn 0.4155 0.8092 -0.4155
vn 0.5100 0.8602 -0.0000
vn 1.0000 -0.0000 -0.0000
vn 0.5416 -0.8406 -0.0000
vn 0.7071 -0.0000 0.7071
vn 0.4371 -0.7861 0.4371
vn 0.4155 0.8092 0.4155
vn -0.0000 0.8602 0.5100
vn -0.0000 -0.0000 1.0000
vn -0.0000 -0.8406 0.5416
vn -0.0000 1.0000 -0.0000
vn -0.0000 -1.0000 -0.0000
vt 0.045754 0.657639
vt 0.454246 0.157639
vt 0.157639 0.954246
vt 0.342361 0.454246
vt 0.342361 0.545754
vt 0.157639 0.045754
vt 0.454246 0.842361
vt 0.045754 0.342361
vt 0.069197 0.818201
vt 0.499004 0.137399
vt 0.000996 0.637399
vt 0.430802 0.318201
vt 0.137399 0.999004
vt 0.362601 0.499004
vt 0.318201 0.930803
vt 0.181799 0.430803
vt 0.499004 0.862601
vt 0.000996 0.362601
vt 0.430803 0.681799
vt 0.069197 0.181799
vt 0.362601 0.500996
vt 0.137399 0.000996
vt 0.181799 0.569198
vt 0.318201 0.069198
vt 0.499004 0.343928
vt 0.000996 0.843928
vt 0.156072 0.499004
vt 0.343928 0.999004
vt 0.000996 0.156072
vt 0.499004 0.656072
vt 0.343928 0.000996
vt 0.156072 0.500996
vt 0.250000 0.750000
vt 0.250000 0.250000
s 1
usemtl Material.003
f 1/1/1 9/9/2 21/26/3 10/11/4
f 10/10/4 21/25/3 11/12/5 2/2/6
f 21/25/3 12/14/7 4/4/8 11/12/5
f 9/9/2 3/3/9 12/13/7 21/26/3
f 3/3/9 13/15/10 22/28/11 12/13/7
f 12/14/7 22/27/11 14/16/12 4/4/8
f 22/27/11 15/18/13 8/8/14 14/16/12
f 13/15/10 7/7/15 15/17/13 22/28/11
f 7/7/15 16/19/16 23/30/17 15/17/13
f 15/18/13 23/29/17 17/20/18 8/8/14
f 23/29/17 18/22/19 6/6/20 17/20/18
f 16/19/16 5/5/21 18/21/19 23/30/17
f 5/5/21 19/23/22 24/32/23 18/21/19
f 18/22/19 24/31/23 20/24/24 6/6/20
f 24/31/23 10/10/4 2/2/6 20/24/24
f 19/23/22 1/1/1 10/11/4 24/32/23
f 3/3/9 9/9/2 25/33/25 13/15/10
f 13/15/10 25/33/25 16/19/16 7/7/15
f 25/33/25 19/23/22 5/5/21 16/19/16
f 9/9/2 1/1/1 19/23/22 25/33/25
f 8/8/14 17/20/18 26/34/26 14/16/12
f 14/16/12 26/34/26 11/12/5 4/4/8
f 26/34/26 20/24/24 2/2/6 11/12/5
f 17/20/18 6/6/20 20/24/24 26/34/26
